<?xml version="1.0" encoding="utf-8" ?>
<svg xmlns="http://www.w3.org/2000/svg" xmlns:xlink="http://www.w3.org/1999/xlink" width="574" height="574" viewBox="236 229 574 574">
    <defs>
        <mask id="cutouts" maskUnits="userSpaceOnUse" x="236" y="229" width="574" height="574">
            <rect x="236" y="229" width="574" height="574" fill="white"/>
            <path fill="black" d="M619.618 372.914C627.415 371.2 635.123 376.141 636.822 383.941C638.521 391.742 633.565 399.441 625.761 401.124C617.978 402.803 610.306 397.864 608.612 390.085C606.918 382.305 611.842 374.623 619.618 372.914Z"/>
            <path fill="black" d="M249.02 717.001L264.969 716.824L265.105 732.919L248.992 733.027C249.066 727.737 249.012 722.304 249.02 717.001Z"/>
            <path fill="black" d="M337.884 716.685C342.891 716.534 348.206 716.604 353.238 716.586C353.258 719.136 353.693 731.506 352.834 732.844C347.76 732.736 342.685 732.743 337.612 732.866C337.842 727.777 337.79 721.858 337.884 716.685Z"/>
            <path fill="black" d="M372.261 652.986C376.872 653.36 383.045 653.203 387.774 653.214C387.735 658.522 387.82 663.963 387.845 669.283L372.098 669.284L372.261 652.986Z"/>
            <path fill="black" d="M450.732 647.235L457.119 647.532C456.932 652.779 457.088 658.203 457.162 663.466L449.213 663.39L441.844 663.451L442.02 647.421L450.732 647.235Z"/>
            <path fill="black" d="M300.999 605.764C302.133 607.16 301.801 619.237 301.826 621.916L287.516 622.03L287.125 621.79C286.069 620.116 286.714 608.775 286.791 606.033C291.528 606.039 296.265 605.949 300.999 605.764Z"/>
            <path fill="black" d="M287.424 527.696C292.289 527.738 297.534 527.595 302.424 527.544C302.318 532.34 302.801 539.208 302.272 543.727C297.452 543.436 292.025 543.552 287.154 543.55C287.392 538.451 287.375 532.831 287.424 527.696Z"/>
        </mask>
    </defs>
    <g mask="url(#cutouts)">
        <path fill="#7C3AED" d="M508.526 301.692C518.464 301.076 532.852 301.47 543.15 301.479C559.15 301.493 576.102 301.178 592.027 301.521C616.978 302.057 641.774 314.259 658.886 332.24C669.629 343.543 677.366 357.359 681.391 372.424C683.345 379.859 685.141 389.46 685.047 397.177C684.628 431.614 685.585 466.356 684.773 500.768C689.267 502.994 693.995 504.709 698.871 505.882C714.32 509.575 733.022 507.292 746.635 498.821C761.265 489.825 771.676 475.337 775.537 458.601C780.198 438.288 774.866 422.727 764.318 405.826C773.348 409.586 780.413 418.171 784.839 426.715C806.298 468.138 776.167 522.962 730.927 530.269C680.586 538.4 638.086 502.236 617.005 459.401C613.579 460.934 607.617 462.713 603.889 463.946C612.006 494.435 653.006 534.884 684.599 538.999C684.969 550.017 684.848 561.627 684.829 572.764C684.809 584.385 686.04 594.362 694.762 603.061C704.582 612.854 718.911 612.049 731.993 611.86C732.252 624.738 732.034 638.295 732.02 651.223L716.508 651.227C692.146 651.023 671.844 643.287 655.076 625.609C633.584 602.951 635.008 582.577 635.058 554.254C635.053 540.788 635.118 527.321 635.253 513.855C604.758 507.056 587.046 495.2 572.605 466.584C572.005 481.468 572.482 500.011 572.482 515.117L572.456 609.023L509.406 609.127L509.428 527.211C509.438 511.474 509.734 494.922 509.22 479.296C502.637 484.646 496.043 488.383 488.44 492.018C487.135 532.584 488.3 577.153 488.056 618.047C484.779 622.767 472.039 634.04 466.954 639.905L467.022 673.059L432.021 673.186C432.01 661.314 432.077 649.442 432.22 637.571C436.993 637.674 441.203 637.809 445.983 637.47C452.572 631.466 466.738 617.475 472.484 610.843C472.004 573.483 472.435 535.268 472.481 497.834C465.802 500.725 456.872 502.334 449.625 502.604L449.603 559.033C449.598 569.155 449.324 581.016 449.819 591.003C443.541 596.143 434.432 606.006 428.497 612.069C418.085 622.554 407.75 633.117 397.495 643.756C398.076 654.998 397.69 667.223 397.746 678.606C390.098 678.512 382.321 678.598 374.662 678.615L374.447 678.803C373.635 680.787 374.245 697.429 374.364 700.77C370.6 704.844 367.427 707.87 363.393 711.632C362.943 721.949 363.044 731.935 363.058 742.259L327.978 742.404L327.868 707.011L345.06 707.082C349.619 703.703 357.027 695.707 361.139 691.434C360.933 675.451 361.293 659.497 361.086 643.432C365.693 643.407 370.385 643.492 375 643.53C378.926 640.009 383.844 634.532 387.727 630.602C396.633 621.675 405.483 612.691 414.276 603.653C417.882 599.961 431.187 587.095 433.512 583.544C433.193 557.059 433.46 529.999 433.506 503.471C425.54 503.011 420.225 502.603 412.409 501.089C412.504 523.373 412.457 545.658 412.268 567.943C408.693 571.894 403.62 576.664 399.738 580.588L376.832 603.98L311.001 671.98L287.32 695.994C283.466 699.928 278.083 705.176 274.754 709.372L274.862 742.446L239.401 742.436L239.389 707.008C244.101 707.144 248.816 707.145 253.529 707.011C258.447 702.855 269.044 691.272 274.048 686.159L317.58 641.676L370.639 587.298C377.859 579.913 390.428 568.017 396.522 560.705C396.998 555.202 396.658 545.661 396.673 539.762L396.787 497.209C389.692 495.268 382.843 491.503 376.476 487.894L376.416 540.427C370.869 546.323 364.047 552.707 358.229 558.523C347.333 569.364 336.515 580.283 325.774 591.278C320.843 596.25 315.988 600.716 311.233 605.902C311.133 614.301 311.189 622.7 311.403 631.097L276.531 631.277L276.46 596.471C283.399 596.331 290.566 596.449 297.524 596.485C301.39 593.432 306.181 588.336 309.782 584.709L329.056 565.168C338.421 555.646 352.671 542.29 360.849 532.791C360.94 515.742 361.251 494.762 360.773 478.005C352.646 471.362 347.428 466.332 340.885 458.282C341.022 470.381 341.295 485.04 340.708 497.011C338.883 499.5 334.27 503.946 332.02 506.25C325.503 512.927 318.657 519.271 312.393 526.208C312.276 535.155 312.272 544.102 312.381 553.049L277.007 553.056L276.899 518.45C283.34 518.356 290.026 518.475 296.486 518.507C300.985 515.058 321.443 493.992 325.005 489.614C325.02 479.545 324.439 400.774 326.105 396.771C327.43 397.934 332.831 415.296 334.42 418.631C369.606 492.484 455.516 511.83 513.905 452.39C510.898 449.717 507.787 446.963 504.99 444.074C488.662 427.236 479.824 404.519 480.481 381.074C481.121 350.273 496.349 331.033 517.208 310.924C514.047 307.815 511.481 304.991 508.526 301.692Z"/>
        <path fill="#7C3AED" d="M435.37 291.216C458.422 290.471 474.641 296.883 492.791 310.302C477.907 329.183 468.189 343.784 464.329 368.703C460.95 390.519 465.547 413.479 476.036 432.833C479.477 439.181 485.253 446.638 489.598 452.545C468.847 466.134 455.424 470.551 430.452 470.109C411.404 469.564 390.73 460.745 376.781 448.065C315.012 391.915 353.971 295.559 435.37 291.216Z"/>
    </g>
    <g>
        <circle cx="760" cy="740" r="50" fill="#5B21B6" stroke="#7C3AED" stroke-width="2"/>
        <g fill="#FAFAFA">
            <circle cx="744" cy="724" r="3.5"/><circle cx="760" cy="724" r="3.5"/><circle cx="776" cy="724" r="3.5"/>
            <circle cx="744" cy="740" r="3.5"/><circle cx="760" cy="740" r="3.5"/><circle cx="776" cy="740" r="3.5"/>
            <circle cx="744" cy="756" r="3.5"/><circle cx="760" cy="756" r="3.5"/><circle cx="776" cy="756" r="3.5"/>
        </g>
    </g>
</svg>
